<svg xmlns="http://www.w3.org/2000/svg" viewBox="0 0 1000 1000"><path d="M973.2 365.1c-.7.2-1.3.3-2 .5C983.4 408.3 990 453.4 990 500c0 270.6-219.4 490-490 490-132.3 0-252.3-52.6-340.5-137.8-.1.2-.3.5-.3.5l-1-1.8C66.8 761.9 10 637.6 10 500 10 229.4 229.4 10 500 10c149.6 0 283.4 67.1 373.3 172.8h9.8s5.4 12 13.5 29.7C929 257 954 307.2 970 361.3c1.3 2 2.5 3.4 3.2 3.8zm-31.9 8.4c-104.7 27.6-198.6 45.7-282.6 56.5 10.3 17 21.1 32.7 32.1 47.1 131.4-97 250.3-66.2 250.3-66.2s4.9 3.2 10.9 7.5c-2.8-15.3-6.5-30.2-10.7-44.9zM959.4 500c0-21.5-2-42.5-4.8-63.3-109.3-10.8-185.3 19.9-237.7 71.4 97.9 106.7 206.9 125 222.2 127.1 13.1-42.7 20.3-88.1 20.3-135.2zM849.2 797.7c9.4-11.1 18.5-22.5 26.9-34.4C791.2 702 727 630.1 678 555.8c-28.8 44.1-47 95.7-58.2 147.1 113.8 30.1 195.9 74.5 229.4 94.8zM605.9 946.6c69.8-16.6 133.5-48.8 186.9-93.2-67.3-39.9-128.3-68.1-183.5-87.6-10 81.2-5.8 152.7-3.4 180.8zM524.4 683c39.8-76 82.9-131.6 125.9-172-14.4-25.2-27-50.5-38.3-75.6-57.2 5.8-109.5 8.2-157 7.9-58.3 118.2-132.4 193-198.9 240 97.6-15.8 188.1-12.7 268.3-.3zm-99.2 269.8c21.4-84.3 46.3-155.6 73.3-216.1-183-30.3-281.5 48.5-320 91 66 64.7 151.5 109.3 246.7 125.1zM71.4 664.4c173.4-25.2 263.1-117.3 307.4-224-175.3-12.5-272.7-61.8-313.5-88.4-15.8 46.5-24.7 96.2-24.7 148 0 58 11.2 113.3 30.8 164.4zM401.1 51.6C323 68.7 252.4 105.8 194.7 157.1c63.8 92.7 139.9 138.5 217.4 155.1 14.5-109.8-1.6-213.8-11-260.6zm103 267.7c21-.9 41.8-3.4 62.1-7.1-13.6-45.7-23.1-89-29.4-127.1-8.7 48.8-19.8 93.3-32.7 134.2zm52.6-274.8c4.6 103.9 21 189.5 44.6 260.2C714 276.1 807.6 215.2 840.4 192c-72-79.5-171.6-133.6-283.7-147.5z"/></svg>