<svg class="svg-icon" style="width: 1em; height: 1em;vertical-align: middle;fill: currentColor;overflow: hidden;" viewBox="0 0 1024 1024" version="1.1" xmlns="http://www.w3.org/2000/svg"><path d="M384 168.96c-65.024 21.504-122.88 71.68-122.88 71.68l97.28 40.96 128-61.44 20.48-61.44s-65.536-8.704-122.88 10.24z" fill="#9C9C9C" /><path d="M476.16 460.8L358.4 358.4l-163.84-5.12 15.36 204.8 87.04 51.2 66.56 215.04 225.28-240.64 5.12-122.88z" fill="#D1D1D1" /><path d="M803.84 296.96l-143.36-97.28-51.2 51.2 20.48 87.04 97.28 35.84 56.32 56.32 61.44 46.08-46.08 56.32-87.04 261.12 138.24-138.24 20.48-184.32z" fill="#9C9C9C" /><path d="M509.44 174.08c184.832 0 335.36 150.528 335.36 335.36S694.272 844.8 509.44 844.8 174.08 694.272 174.08 509.44 324.608 174.08 509.44 174.08m0-61.44C290.304 112.64 112.64 290.304 112.64 509.44S290.304 906.24 509.44 906.24 906.24 728.576 906.24 509.44 728.576 112.64 509.44 112.64z" fill="#9C9C9C" /></svg>